<svg width="32" height="32" viewBox="0 0 32 32" fill="none" xmlns="http://www.w3.org/2000/svg">
<g clip-path="url(#clip0_1_13)">
<path fill-rule="evenodd" clip-rule="evenodd" d="M-5 -15.5H-7.5V-13V12.072V14.572H-5H3.91842C5.91687 14.572 7.83267 13.7744 9.24071 12.3562L13.5163 8.04989C14.8851 6.6712 17.1149 6.6712 18.4837 8.04989L22.7593 12.3562C24.1673 13.7744 26.0831 14.572 28.0816 14.572H36.5H39V12.072V-13V-15.5H36.5H-5ZM-2.5 9.57198V-10.5H34V9.57198H28.0816C27.4154 9.57198 26.7768 9.30612 26.3075 8.8334L22.0319 4.52706C18.7076 1.17881 13.2924 1.17882 9.96807 4.52706L5.69252 8.8334C5.22317 9.30612 4.58457 9.57198 3.91842 9.57198H-2.5ZM18.9155 29.8826L17.9923 30.4212C17.3778 30.7796 17 31.4374 17 32.1487V33.0858C17 33.351 16.8946 33.6054 16.7071 33.7929C16.3166 34.1834 15.6834 34.1834 15.2929 33.7929C15.1054 33.6054 15 33.351 15 33.0858V32.124C15 31.426 14.6361 30.7785 14.0399 30.4156L13.0706 29.8256C8.1566 26.8344 7.27187 20.0641 11.2523 15.9107L14.638 12.3778C14.8752 12.1302 15.0437 11.825 15.1269 11.4924L15.3787 10.4851C15.45 10.2 15.7061 10 16 10C16.2939 10 16.55 10.2 16.6213 10.4851L16.8691 11.4763C16.9547 11.819 17.1319 12.1319 17.3817 12.3817L20.7446 15.7446C24.9173 19.9173 24.0127 26.9092 18.9155 29.8826Z" fill="url(#paint0_linear_1_13)"/>
</g>
<defs>
<linearGradient id="paint0_linear_1_13" x1="16" y1="32" x2="16" y2="6.5" gradientUnits="userSpaceOnUse">
<stop stop-color="#79B4A9"/>
<stop offset="1" stop-color="#D7F2BA"/>
</linearGradient>
<clipPath id="clip0_1_13">
<rect width="32" height="32" rx="6" fill="white"/>
</clipPath>
</defs>
</svg>
